<?xml version="1.0" encoding="utf-8"?>
<!-- Generator: Adobe Illustrator 15.0.0, SVG Export Plug-In . SVG Version: 6.00 Build 0)  -->
<!DOCTYPE svg PUBLIC "-//W3C//DTD SVG 1.1//EN" "http://www.w3.org/Graphics/SVG/1.1/DTD/svg11.dtd">
<svg version="1.1" id="Layer_2" opacity="0.9" xmlns="http://www.w3.org/2000/svg" xmlns:xlink="http://www.w3.org/1999/xlink"
	 x="0px" y="0px" width="500px" height="500px" viewBox="0 0 500 500" enable-background="new 0 0 500 500" xml:space="preserve">
<circle fill="#482E05" cx="224.515" cy="170.984" r="53.235"/>
<circle fill="#5A53E5" cx="225.75" cy="170.75" r="51"/>
<circle fill="#CAD42C" cx="231.75" cy="179.25" r="20"/>
<circle fill="#482E05" cx="235.25" cy="178.25" r="10"/>
<ellipse transform="matrix(0.9788 0.2051 -0.2051 0.9788 40.6835 -44.8226)" fill="#FFFFFF" cx="236.608" cy="173.884" rx="5.641" ry="3.046"/>
<circle fill="#5A53E5" cx="155.083" cy="237.25" r="10.333"/>
<circle fill="#5A53E5" cx="137.083" cy="249.583" r="10.333"/>
<circle fill="#5A53E5" cx="247.583" cy="397.583" r="10.333"/>
<circle fill="#5A53E5" cx="232.583" cy="422.083" r="10.333"/>
<circle fill="#5A53E5" cx="246.083" cy="310.083" r="10.333"/>
<circle fill="#5A53E5" cx="117.417" cy="237.25" r="10.333"/>
<circle fill="#5A53E5" cx="105.75" cy="216.917" r="10.333"/>
<circle fill="#5A53E5" cx="90.75" cy="244.25" r="10.333"/>
<circle fill="#5A53E5" cx="87.083" cy="265.583" r="10.333"/>
<circle fill="#5A53E5" cx="63.25" cy="278.918" r="10.333"/>
<circle fill="#5A53E5" cx="111.75" cy="261.916" r="10.333"/>
<circle fill="#5A53E5" cx="122.083" cy="283.916" r="10.333"/>
<circle fill="#5A53E5" cx="157.583" cy="286.416" r="7.833"/>
<circle fill="#5A53E5" cx="167.083" cy="261.916" r="7.333"/>
<circle fill="#5A53E5" cx="177.083" cy="361.916" r="7.333"/>
<circle fill="#5A53E5" cx="175.417" cy="282.583" r="7"/>
<circle fill="#5A53E5" cx="191.917" cy="262.416" r="9.833"/>
<circle fill="#5A53E5" cx="178.417" cy="246.916" r="4.333"/>
<circle fill="#5A53E5" cx="181.083" cy="231.25" r="8"/>
<circle fill="#5A53E5" cx="317.084" cy="288.75" r="8"/>
<circle fill="#5A53E5" cx="298.084" cy="305.75" r="8"/>
<circle fill="#5A53E5" cx="312.584" cy="240.25" r="8"/>
<circle fill="#5A53E5" cx="287.584" cy="254.75" r="8"/>
<circle fill="#5A53E5" cx="260.584" cy="336.75" r="8"/>
<circle fill="#5A53E5" cx="181.917" cy="217.75" r="2.833"/>
<circle fill="#5A53E5" cx="173.816" cy="208.503" r="2.833"/>
<circle fill="#5A53E5" cx="175.417" cy="200.25" r="2.667"/>
<circle fill="#5A53E5" cx="180.36" cy="206.43" r="2.667"/>
<circle fill="#5A53E5" cx="185.056" cy="211.62" r="2.667"/>
<circle fill="#5A53E5" cx="166.083" cy="192.917" r="2.333"/>
<circle fill="#5A53E5" cx="165.342" cy="199.961" r="2.333"/>
<circle fill="#5A53E5" cx="50.583" cy="305.917" r="2.333"/>
<circle fill="#5A53E5" cx="170.083" cy="185.25" r="2.333"/>
<circle fill="#5A53E5" cx="167.25" cy="172.417" r="2.167"/>
<circle fill="#5A53E5" cx="166.084" cy="177.583" r="3.667"/>
<circle fill="#5A53E5" cx="159.25" cy="182.083" r="2.833"/>
<circle fill="#5A53E5" cx="160.486" cy="192.588" r="2.833"/>
<circle fill="#5A53E5" cx="152.917" cy="190.417" r="3.833"/>
<circle fill="#5A53E5" cx="143.401" cy="191.529" r="3.833"/>
<circle fill="#5A53E5" cx="154.083" cy="208.25" r="9"/>
<circle fill="#5A53E5" cx="142.084" cy="202.25" r="3.333"/>
<circle fill="#5A53E5" cx="137.583" cy="219.083" r="8.833"/>
<circle fill="#5A53E5" cx="166.583" cy="221.083" r="8.833"/>
<circle fill="#5A53E5" cx="127.417" cy="189.917" r="4"/>
<circle fill="#5A53E5" cx="114.417" cy="191.583" r="5.667"/>
<circle fill="#5A53E5" cx="99.75" cy="199.25" r="5.667"/>
<circle fill="#5A53E5" cx="83.083" cy="206.25" r="6.333"/>
<circle fill="#5A53E5" cx="86.917" cy="225.75" r="7.167"/>
<circle fill="#5A53E5" cx="80.583" cy="285.75" r="8.833"/>
<circle fill="#5A53E5" cx="108.75" cy="312.583" r="14"/>
<circle fill="#5A53E5" cx="138.75" cy="323.917" r="12"/>
<circle fill="#5A53E5" cx="140.75" cy="298.417" r="12"/>
<circle fill="#5A53E5" cx="197.917" cy="244.083" r="5.833"/>
<circle fill="#5A53E5" cx="195.25" cy="230.417" r="2.833"/>
<circle fill="#5A53E5" cx="195.75" cy="223.25" r="1.333"/>
<circle fill="#5A53E5" cx="193.083" cy="218.917" r="2"/>
<circle fill="#5A53E5" cx="204.917" cy="228.417" r="4.167"/>
<circle fill="#5A53E5" cx="212.083" cy="226.25" r="3"/>
<circle fill="#5A53E5" cx="213.583" cy="234.417" r="1.5"/>
<circle fill="#5A53E5" cx="204.25" cy="238.75" r="2.167"/>
<circle fill="#5A53E5" cx="210.25" cy="250.75" r="3.833"/>
<circle fill="#5A53E5" cx="218.75" cy="249.916" r="2.333"/>
<circle fill="#5A53E5" cx="226.583" cy="241.416" r="5.5"/>
<circle fill="#5A53E5" cx="230.917" cy="230.75" r="1.833"/>
<circle fill="#5A53E5" cx="236.583" cy="225.75" r="2.5"/>
<circle fill="#5A53E5" cx="243.917" cy="224.083" r="1.167"/>
<circle fill="#5A53E5" cx="256.417" cy="220.917" r="3"/>
<circle fill="#5A53E5" cx="264.417" cy="215.25" r="2.667"/>
<circle fill="#5A53E5" cx="274.084" cy="207.917" r="4"/>
<circle fill="#5A53E5" cx="281.917" cy="199.75" r="4.5"/>
<circle fill="#5A53E5" cx="283.917" cy="189.75" r="2.167"/>
<circle fill="#5A53E5" cx="287.084" cy="176.583" r="3"/>
<circle fill="#5A53E5" cx="287.917" cy="167.417" r="2.167"/>
<circle fill="#5A53E5" cx="275.75" cy="147.583" r="1"/>
<circle fill="#5A53E5" cx="272.917" cy="140.417" r="1.167"/>
<circle fill="#5A53E5" cx="269.25" cy="133.083" r="1.833"/>
<circle fill="#5A53E5" cx="260.917" cy="123.083" r="1.833"/>
<circle fill="#5A53E5" cx="247.208" cy="111.555" r="2"/>
<circle fill="#5A53E5" cx="233.75" cy="109.917" r="2.667"/>
<circle fill="#5A53E5" cx="217.917" cy="111.417" r="1.167"/>
<circle fill="#5A53E5" cx="204.25" cy="111.417" r="3.167"/>
<circle fill="#5A53E5" cx="195.25" cy="116.75" r="2.833"/>
<circle fill="#5A53E5" cx="183.417" cy="122.917" r="2"/>
<circle fill="#5A53E5" cx="176.25" cy="128.083" r="1.833"/>
<circle fill="#5A53E5" cx="166.75" cy="142.25" r="1"/>
<circle fill="#5A53E5" cx="161.25" cy="154.417" r="2.167"/>
<circle fill="#5A53E5" cx="161.417" cy="161.583" r="1.333"/>
<circle fill="#5A53E5" cx="153.25" cy="166.083" r="2.167"/>
<circle fill="#5A53E5" cx="143.25" cy="167.75" r="3.167"/>
<circle fill="#5A53E5" cx="127.917" cy="173.083" r="4.5"/>
<circle fill="#5A53E5" cx="109.75" cy="178.25" r="5"/>
<circle fill="#5A53E5" cx="313.75" cy="181.917" r="3.333"/>
<circle fill="#5A53E5" cx="326.417" cy="182.25" r="3.333"/>
<circle fill="#5A53E5" cx="330.417" cy="171.75" r="3.333"/>
<circle fill="#5A53E5" cx="300.417" cy="183.917" r="4.667"/>
<circle fill="#5A53E5" cx="294.25" cy="189.583" r="4.667"/>
<circle fill="#5A53E5" cx="305.25" cy="195.083" r="4.667"/>
<circle fill="#5A53E5" cx="299.583" cy="165.083" r="4.167"/>
<circle fill="#5A53E5" cx="309.917" cy="169.75" r="1.5"/>
<circle fill="#5A53E5" cx="342.284" cy="159.542" r="1.5"/>
<circle fill="#5A53E5" cx="333.555" cy="163.438" r="1.5"/>
<circle fill="#5A53E5" cx="337.181" cy="173.107" r="1.5"/>
<circle fill="#5A53E5" cx="367.131" cy="156.856" r="1.5"/>
<circle fill="#5A53E5" cx="324.417" cy="168.583" r="5"/>
<circle fill="#5A53E5" cx="342.75" cy="133.25" r="5"/>
<circle fill="#5A53E5" cx="124.583" cy="202.083" r="4.833"/>
<circle fill="#5A53E5" cx="139.083" cy="182.583" r="3.333"/>
<circle fill="#5A53E5" cx="150.25" cy="176.083" r="4.167"/>
<circle fill="#5A53E5" cx="163.417" cy="146.583" r="1"/>
<circle fill="#5A53E5" cx="167.75" cy="133.25" r="2.667"/>
<circle fill="#59B63F" cx="437.25" cy="150.083" r="2.167"/>
<circle fill="#59B63F" cx="429.25" cy="151.75" r="3.167"/>
<circle fill="#59B63F" cx="418.584" cy="151.917" r="6.333"/>
<circle fill="#59B63F" cx="406.584" cy="156.917" r="6.333"/>
<circle fill="#59B63F" cx="394.084" cy="163.583" r="6.333"/>
<circle fill="#59B63F" cx="374.084" cy="170.583" r="9"/>
<circle fill="#59B63F" cx="356.084" cy="179.25" r="8.333"/>
<circle fill="#59B63F" cx="338.417" cy="189.25" r="9.333"/>
<circle fill="#59B63F" cx="321.084" cy="199.25" r="10.333"/>
<circle fill="#59B63F" cx="297.084" cy="212.25" r="9"/>
<circle fill="#59B63F" cx="278.75" cy="222.583" r="6"/>
<circle fill="#59B63F" cx="268.083" cy="232.25" r="7.333"/>
<circle fill="#59B63F" cx="253.417" cy="242.917" r="5.333"/>
<circle fill="#59B63F" cx="240.083" cy="249.583" r="6.333"/>
<circle fill="#59B63F" cx="229.417" cy="257.917" r="6"/>
<circle fill="#59B63F" cx="216.083" cy="267.25" r="5"/>
<circle fill="#59B63F" cx="205.417" cy="276.25" r="5"/>
<circle fill="#59B63F" cx="198.083" cy="285.917" r="5.333"/>
<circle fill="#59B63F" cx="192.75" cy="293.25" r="3.333"/>
<circle fill="#59B63F" cx="186.417" cy="298.917" r="3"/>
<circle fill="#59B63F" cx="183.417" cy="302.917" r="2.666"/>
<ellipse fill="#59B63F" cx="178.75" cy="304.25" rx="0" ry="2.333"/>
<circle fill="#59B63F" cx="172.417" cy="306.583" r="2.667"/>
<circle fill="#59B63F" cx="165.417" cy="307.25" r="4.333"/>
<circle fill="#59B63F" cx="162.083" cy="312.25" r="4"/>
<circle fill="#59B63F" cx="156.75" cy="317.75" r="4"/>
<circle fill="#59B63F" cx="172.75" cy="314.917" r="3.667"/>
<circle fill="#59B63F" cx="177.417" cy="310.583" r="2.333"/>
<circle fill="#59B63F" cx="177.417" cy="303.917" r="2.667"/>
<circle fill="#59B63F" cx="178.083" cy="296.917" r="6.333"/>
<ellipse fill="#59B63F" cx="185.417" cy="291.917" rx="2.333" ry="0"/>
<circle fill="#59B63F" cx="189.083" cy="285.25" r="2"/>
<circle fill="#59B63F" cx="191.417" cy="278.25" r="3.333"/>
<circle fill="#59B63F" cx="186.75" cy="288.917" r="3.667"/>
<circle fill="#59B63F" cx="202.083" cy="294.583" r="6.333"/>
<circle fill="#59B63F" cx="214.417" cy="286.25" r="5"/>
<circle fill="#59B63F" cx="221.417" cy="278.917" r="8.333"/>
<circle fill="#59B63F" cx="234.75" cy="270.917" r="7"/>
<circle fill="#59B63F" cx="248.083" cy="262.25" r="5.667"/>
<circle fill="#59B63F" cx="258.75" cy="254.917" r="9"/>
<circle fill="#59B63F" cx="273.75" cy="243.917" r="6.667"/>
<circle fill="#59B63F" cx="286.75" cy="234.583" r="8.334"/>
<circle fill="#59B63F" cx="299.75" cy="225.917" r="8.667"/>
<circle fill="#59B63F" cx="316.084" cy="222.917" r="6"/>
<circle fill="#59B63F" cx="326.084" cy="214.583" r="8.333"/>
<circle fill="#59B63F" cx="341.75" cy="205.417" r="6.667"/>
<circle fill="#59B63F" cx="354.084" cy="199.917" r="10.333"/>
<circle fill="#59B63F" cx="371.417" cy="188.583" r="8"/>
<circle fill="#59B63F" cx="387.75" cy="180.25" r="8"/>
<circle fill="#59B63F" cx="404.75" cy="173.25" r="4.667"/>
<circle fill="#59B63F" cx="415.75" cy="169.25" r="8.667"/>
<circle fill="#59B63F" cx="427.75" cy="163.25" r="5"/>
<circle fill="#59B63F" cx="433.084" cy="156.917" r="3.333"/>
<circle fill="#59B63F" cx="343.417" cy="167.917" r="4.667"/>
<circle fill="#59B63F" cx="356.417" cy="159.25" r="5"/>
<circle fill="#59B63F" cx="348.417" cy="149.25" r="4.333"/>
<circle fill="#59B63F" cx="338.75" cy="147.25" r="3.667"/>
<circle fill="#59B63F" cx="334.75" cy="154.25" r="5"/>
<circle fill="#59B63F" cx="321.417" cy="138.25" r="6.333"/>
<circle fill="#59B63F" cx="330.417" cy="133.25" r="4.333"/>
<circle fill="#59B63F" cx="300.417" cy="123.917" r="5.667"/>
<circle fill="#59B63F" cx="287.084" cy="125.917" r="6.666"/>
<circle fill="#59B63F" cx="322.417" cy="124.25" r="2.333"/>
<circle fill="#59B63F" cx="370.417" cy="140.25" r="2"/>
<circle fill="#59B63F" cx="340.417" cy="231.25" r="4"/>
<circle fill="#59B63F" cx="350.084" cy="222.583" r="6"/>
<circle fill="#59B63F" cx="361.417" cy="212.917" r="4.667"/>
<circle fill="#59B63F" cx="368.75" cy="205.583" r="7"/>
<circle fill="#59B63F" cx="376.084" cy="203.917" r="4.333"/>
<circle fill="#59B63F" cx="383.75" cy="198.917" r="5"/>
<circle fill="#59B63F" cx="393.084" cy="192.25" r="3.666"/>
<circle fill="#59B63F" cx="403.084" cy="185.583" r="5"/>
<circle fill="#59B63F" cx="404.084" cy="204.25" r="4"/>
<circle fill="#59B63F" cx="405.084" cy="219.583" r="1.666"/>
<circle fill="#59B63F" cx="394.75" cy="225.917" r="3.667"/>
<circle fill="#59B63F" cx="389.417" cy="236.583" r="1.333"/>
<circle fill="#59B63F" cx="386.75" cy="243.583" r="3.667"/>
<ellipse fill="#59B63F" cx="373.417" cy="255.583" rx="0" ry="3"/>
<circle fill="#59B63F" cx="362.75" cy="261.917" r="3"/>
<circle fill="#59B63F" cx="347.084" cy="272.917" r="2.333"/>
<circle fill="#59B63F" cx="340.75" cy="284.583" r="2.334"/>
<circle fill="#59B63F" cx="333.084" cy="293.583" r="2.666"/>
<circle fill="#59B63F" cx="315.75" cy="302.583" r="5"/>
<circle fill="#59B63F" cx="310.084" cy="313.583" r="5"/>
<circle fill="#59B63F" cx="286.75" cy="298.583" r="6.667"/>
<circle fill="#59B63F" cx="300.417" cy="294.583" r="2.333"/>
<circle fill="#59B63F" cx="289.75" cy="275.917" r="2.666"/>
<circle fill="#59B63F" cx="260.75" cy="298.25" r="4.667"/>
<circle fill="#59B63F" cx="230.083" cy="314.583" r="4.667"/>
<circle fill="#59B63F" cx="230.75" cy="323.583" r="1"/>
<circle fill="#59B63F" cx="231.417" cy="340.25" r="2"/>
<circle fill="#59B63F" cx="141.75" cy="399.583" r="6"/>
<circle fill="#59B63F" cx="125.75" cy="412.583" r="6"/>
<circle fill="#59B63F" cx="134.917" cy="393.25" r="6"/>
<circle fill="#59B63F" cx="102.584" cy="419.25" r="5.667"/>
<circle fill="#59B63F" cx="105.25" cy="429.25" r="5.667"/>
<circle fill="#59B63F" cx="90.083" cy="426.25" r="7"/>
<circle fill="#59B63F" cx="113.242" cy="410.013" r="7.667"/>
<circle fill="#59B63F" cx="125.087" cy="429.693" r="8"/>
<circle fill="#59B63F" cx="131.583" cy="415.917" r="10.667"/>
<circle fill="#59B63F" cx="150.083" cy="412.917" r="12"/>
<circle fill="#59B63F" cx="164.417" cy="406.25" r="6"/>
<circle fill="#59B63F" cx="120.083" cy="399.584" r="6"/>
<circle fill="#59B63F" cx="100.75" cy="400.584" r="5.334"/>
<circle fill="#59B63F" cx="104.75" cy="379.25" r="4.666"/>
<circle fill="#59B63F" cx="100.083" cy="367.917" r="2.333"/>
<circle fill="#59B63F" cx="85.417" cy="356.25" r="3.333"/>
<circle fill="#59B63F" cx="87.083" cy="334.25" r="5"/>
<circle fill="#59B63F" cx="84.083" cy="316.25" r="4.333"/>
<ellipse fill="#59B63F" cx="89.75" cy="292.917" rx="0" ry="3"/>
<circle fill="#59B63F" cx="96.417" cy="278.917" r="2"/>
<circle fill="#59B63F" cx="101.75" cy="281.917" r="2.667"/>
<circle fill="#59B63F" cx="94.417" cy="290.584" r="3"/>
<circle fill="#59B63F" cx="108.75" cy="294.917" r="4.333"/>
<circle fill="#59B63F" cx="122.083" cy="300.917" r="1.333"/>
<circle fill="#59B63F" cx="103.083" cy="165.25" r="3.667"/>
<circle fill="#59B63F" cx="100.75" cy="175.583" r="3.333"/>
<circle fill="#59B63F" cx="85.417" cy="182.583" r="3.667"/>
<circle fill="#59B63F" cx="119.75" cy="163.583" r="10"/>
<circle fill="#59B63F" cx="134.417" cy="153.583" r="1.667"/>
<circle fill="#59B63F" cx="144.083" cy="142.583" r="2.333"/>
<circle fill="#59B63F" cx="156.083" cy="133.917" r="5"/>
<circle fill="#59B63F" cx="169.417" cy="123.917" r="6"/>
<circle fill="#59B63F" cx="186.417" cy="115.917" r="2.667"/>
<circle fill="#59B63F" cx="208.083" cy="107.583" r="5.333"/>
<circle fill="#59B63F" cx="231.417" cy="107.917" r="3"/>
<circle fill="#59B63F" cx="252.75" cy="112.917" r="2.667"/>
<circle fill="#59B63F" cx="263.75" cy="115.583" r="3.666"/>
<circle fill="#59B63F" cx="307.75" cy="342.25" r="5.334"/>
<circle fill="#59B63F" cx="273.417" cy="400.917" r="2.333"/>
<ellipse fill="#59B63F" cx="274.084" cy="417.917" rx="0" ry="2.667"/>
<circle fill="#59B63F" cx="259.75" cy="430.25" r="3.333"/>
<circle fill="#482E05" cx="198.75" cy="353.584" r="16.333"/>
<circle fill="#482E05" cx="206.083" cy="379.584" r="4.667"/>
<circle fill="#482E05" cx="188.75" cy="398.584" r="3.667"/>
<circle fill="#482E05" cx="182.417" cy="400.583" r="16.333"/>
<circle fill="#482E05" cx="210.75" cy="420.584" r="13.667"/>
<circle fill="#482E05" cx="241.083" cy="431.917" r="5"/>
<circle fill="#482E05" cx="266.417" cy="420.917" r="8.333"/>
<circle fill="#482E05" cx="281.75" cy="416.25" r="2.667"/>
<circle fill="#482E05" cx="286.75" cy="403.25" r="3.667"/>
<circle fill="#482E05" cx="285.084" cy="390.25" r="9"/>
<circle fill="#482E05" cx="273.417" cy="368.917" r="10.667"/>
<circle fill="#482E05" cx="254.417" cy="346.584" r="5"/>
<circle fill="#482E05" cx="252.083" cy="325.917" r="9"/>
<circle fill="#482E05" cx="240.75" cy="296.917" r="12.333"/>
<circle fill="#482E05" cx="332.084" cy="332.584" r="11.666"/>
<circle fill="#482E05" cx="322.75" cy="351.584" r="5.667"/>
<circle fill="#482E05" cx="309.75" cy="357.584" r="12"/>
<circle fill="#482E05" cx="342.75" cy="335.25" r="6.667"/>
<circle fill="#482E05" cx="340.084" cy="308.25" r="12"/>
<circle fill="#482E05" cx="367.417" cy="293.917" r="4"/>
<circle fill="#482E05" cx="359.417" cy="275.917" r="5"/>
<circle fill="#482E05" cx="332.084" cy="245.25" r="3.666"/>
<circle fill="#482E05" cx="335.125" cy="236.042" r="13.375"/>
<circle fill="#482E05" cx="358.417" cy="230.583" r="3.333"/>
<circle fill="#482E05" cx="367.75" cy="224.917" r="5.334"/>
<circle fill="#482E05" cx="374.417" cy="222.583" r="3.333"/>
<circle fill="#482E05" cx="400.75" cy="203.25" r="8.667"/>
<circle fill="#482E05" cx="415.417" cy="197.25" r="2.667"/>
<circle fill="#482E05" cx="415.75" cy="186.583" r="6.334"/>
<circle fill="#482E05" cx="420.417" cy="179.583" r="4"/>
<circle fill="#482E05" cx="420.084" cy="194.25" r="9"/>
<circle fill="#482E05" cx="417.75" cy="210.25" r="4.334"/>
<circle fill="#482E05" cx="414.084" cy="220.917" r="2.333"/>
<circle fill="#482E05" cx="411.75" cy="229.583" r="3.666"/>
<circle fill="#482E05" cx="407.75" cy="238.25" r="4.667"/>
<circle fill="#482E05" cx="399.084" cy="248.25" r="2.334"/>
<circle fill="#482E05" cx="392.417" cy="257.917" r="5.667"/>
<circle fill="#482E05" cx="389.084" cy="269.584" r="2"/>
<circle fill="#482E05" cx="378.084" cy="276.917" r="7.667"/>
<circle fill="#482E05" cx="381.084" cy="286.25" r="3.667"/>
<circle fill="#482E05" cx="273.417" cy="330.584" r="7"/>
<circle fill="#482E05" cx="251.417" cy="314.917" r="4.333"/>
<circle fill="#482E05" cx="241.417" cy="302.584" r="4.333"/>
<circle fill="#482E05" cx="223.75" cy="296.584" r="13.667"/>
<circle fill="#482E05" cx="211.75" cy="312.917" r="3.667"/>
<circle fill="#482E05" cx="211.417" cy="319.25" r="12.667"/>
<circle fill="#482E05" cx="204.417" cy="333.917" r="5.333"/>
<circle fill="#482E05" cx="206.417" cy="342.584" r="6"/>
<circle fill="#482E05" cx="198.417" cy="356.25" r="10.333"/>
<circle fill="#482E05" cx="191.75" cy="369.25" r="5.334"/>
<circle fill="#482E05" cx="178.083" cy="387.917" r="4.333"/>
<circle fill="#482E05" cx="167.417" cy="380.25" r="7.333"/>
<circle fill="#482E05" cx="142.083" cy="374.917" r="10"/>
<circle fill="#482E05" cx="111.417" cy="343.25" r="10.333"/>
<circle fill="#482E05" cx="121.083" cy="331.917" r="13"/>
<circle fill="#482E05" cx="151.417" cy="268.25" r="4"/>
<circle fill="#482E05" cx="139.75" cy="275.584" r="6"/>
<circle fill="#482E05" cx="130.75" cy="194.583" r="5.333"/>
<circle fill="#482E05" cx="96.75" cy="184.25" r="3"/>
<circle fill="#482E05" cx="84.417" cy="189.917" r="2.333"/>
<circle fill="#482E05" cx="119.083" cy="176.25" r="6.333"/>
<circle fill="#482E05" cx="142.417" cy="155.917" r="8"/>
<circle fill="#482E05" cx="153.417" cy="147.25" r="8"/>
<circle fill="#482E05" cx="160.75" cy="115.583" r="2"/>
<circle fill="#482E05" cx="249.75" cy="114.917" r="1.667"/>
<circle fill="#482E05" cx="260.084" cy="124.917" r="4"/>
<circle fill="#482E05" cx="273.417" cy="130.583" r="4"/>
<circle fill="#482E05" cx="283.084" cy="141.25" r="6.333"/>
<circle fill="#482E05" cx="291.417" cy="139.25" r="9.333"/>
<circle fill="#482E05" cx="299.417" cy="148.583" r="3"/>
<circle fill="#482E05" cx="300.084" cy="154.917" r="6"/>
<circle fill="#482E05" cx="309.084" cy="165.583" r="4.166"/>
<circle fill="#482E05" cx="306.75" cy="175.917" r="5.334"/>
<circle fill="#482E05" cx="322.75" cy="151.583" r="3.334"/>
<circle fill="#482E05" cx="338.75" cy="145.917" r="5.334"/>
<circle fill="#482E05" cx="353.417" cy="143.25" r="5.667"/>
<circle fill="#482E05" cx="384.417" cy="147.917" r="4"/>
<circle fill="#482E05" cx="397.75" cy="147.583" r="5.334"/>
<circle fill="#482E05" cx="410.417" cy="141.917" r="7"/>
<circle fill="#482E05" cx="423.75" cy="135.917" r="4.667"/>
<circle fill="#482E05" cx="426.084" cy="122.917" r="5.333"/>
<circle fill="#482E05" cx="438.417" cy="121.917" r="7.667"/>
<circle fill="#482E05" cx="447.084" cy="118.583" r="4.333"/>
<circle fill="#482E05" cx="179.75" cy="338.584" r="3.667"/>
<circle fill="#482E05" cx="154.083" cy="349.25" r="11"/>
<circle fill="#482E05" cx="170.083" cy="360.584" r="3"/>
<circle fill="#482E05" cx="169.75" cy="333.584" r="10"/>
<circle fill="#482E05" cx="185.75" cy="322.917" r="5"/>
<circle fill="#482E05" cx="189.75" cy="312.584" r="6.667"/>
<circle fill="#482E05" cx="124.417" cy="350.25" r="12"/>
<circle fill="#482E05" cx="125.75" cy="365.25" r="4.667"/>
<circle fill="#482E05" cx="206.417" cy="376.584" r="6.333"/>
<circle fill="#482E05" cx="216.417" cy="358.25" r="17.333"/>
<circle fill="#482E05" cx="236.083" cy="366.584" r="9"/>
<circle fill="#482E05" cx="243.083" cy="385.584" r="7.333"/>
<circle fill="#482E05" cx="237.417" cy="395.917" r="5"/>
<circle fill="#482E05" cx="233.417" cy="400.584" r="7"/>
<circle fill="#482E05" cx="252.417" cy="391.917" r="9"/>
<circle fill="#482E05" cx="214.417" cy="393.917" r="13.333"/>
<circle fill="#482E05" cx="235.417" cy="409.25" r="5.333"/>
<circle fill="#482E05" cx="271.75" cy="278.584" r="5"/>
<circle fill="#482E05" cx="286.417" cy="268.917" r="6"/>
<circle fill="#482E05" cx="276.417" cy="270.584" r="2.333"/>
<circle fill="#482E05" cx="254.417" cy="273.25" r="4.667"/>
<circle fill="#482E05" cx="260.417" cy="280.917" r="9.667"/>
<circle fill="#482E05" cx="271.75" cy="292.584" r="4.667"/>
<circle fill="#482E05" cx="271.083" cy="301.917" r="10.667"/>
<circle fill="#482E05" cx="287.084" cy="314.917" r="6.666"/>
<circle fill="#482E05" cx="294.417" cy="321.25" r="4"/>
<circle fill="#482E05" cx="288.084" cy="329.917" r="9.333"/>
<circle fill="#482E05" cx="286.75" cy="341.25" r="4"/>
<circle fill="#482E05" cx="274.75" cy="346.917" r="4"/>
<circle fill="#482E05" cx="268.084" cy="349.584" r="8.666"/>
<circle fill="#482E05" cx="256.084" cy="378.584" r="8.666"/>
<circle fill="#482E05" cx="230.083" cy="382.584" r="8.666"/>
<circle fill="#482E05" cx="247.083" cy="349.584" r="7.667"/>
<circle fill="#482E05" cx="247.417" cy="364.25" r="5.334"/>
<circle fill="#482E05" cx="291.417" cy="287.25" r="11.667"/>
<circle fill="#482E05" cx="305.417" cy="275.917" r="1.667"/>
<circle fill="#482E05" cx="304.75" cy="262.25" r="4.334"/>
<circle fill="#482E05" cx="307.417" cy="256.917" r="14"/>
<circle fill="#482E05" cx="323.417" cy="251.584" r="5.667"/>
<circle fill="#482E05" cx="324.084" cy="260.584" r="3"/>
<circle fill="#482E05" cx="324.084" cy="268.25" r="5"/>
<circle fill="#482E05" cx="323.084" cy="275.917" r="9.666"/>
<circle fill="#482E05" cx="333.084" cy="257.584" r="2"/>
<circle fill="#482E05" cx="343.417" cy="251.25" r="8"/>
<circle fill="#482E05" cx="358.75" cy="247.584" r="7"/>
<circle fill="#482E05" cx="368.417" cy="241.584" r="6"/>
<circle fill="#482E05" cx="384.084" cy="223.583" r="3"/>
<circle fill="#482E05" cx="388.75" cy="213.583" r="4.667"/>
<circle fill="#482E05" cx="389.75" cy="212.583" r="6"/>
<circle fill="#482E05" cx="372.084" cy="252.25" r="7"/>
<circle fill="#482E05" cx="378.084" cy="261.25" r="3"/>
<circle fill="#482E05" cx="366.084" cy="275.917" r="3.667"/>
<circle fill="#482E05" cx="361.417" cy="282.917" r="6.333"/>
<circle fill="#482E05" cx="356.75" cy="290.584" r="6.333"/>
<circle fill="#482E05" cx="348.417" cy="297.25" r="8.334"/>
<circle fill="#482E05" cx="323.417" cy="321.25" r="6.334"/>
<circle fill="#482E05" cx="319.084" cy="330.917" r="3.333"/>
<circle fill="#482E05" cx="296.417" cy="359.917" r="7.333"/>
<circle fill="#482E05" cx="292.417" cy="371.917" r="3.667"/>
<circle fill="#482E05" cx="261.083" cy="389.917" r="6.667"/>
<circle fill="#482E05" cx="219.083" cy="409.584" r="8.666"/>
<circle fill="#482E05" cx="217.75" cy="419.917" r="8.333"/>
<circle fill="#482E05" cx="220.75" cy="428.25" r="6.333"/>
<circle fill="#482E05" cx="178.801" cy="434.717" r="5.667"/>
<circle fill="#482E05" cx="160.75" cy="418.584" r="19"/>
<circle fill="#482E05" cx="185.083" cy="423.25" r="6.667"/>
<circle fill="#482E05" cx="202.417" cy="379.584" r="9.333"/>
<circle fill="#482E05" cx="187.417" cy="378.917" r="6"/>
<circle fill="#482E05" cx="154.083" cy="371.918" r="10"/>
<circle fill="#482E05" cx="156.75" cy="388.251" r="10"/>
<circle fill="#482E05" cx="167.75" cy="353.25" r="14.333"/>
<circle fill="#482E05" cx="133.417" cy="342.25" r="7.334"/>
<circle fill="#482E05" cx="119.417" cy="361.584" r="7.666"/>
<circle fill="#482E05" cx="125.083" cy="372.25" r="4"/>
<circle fill="#482E05" cx="128.083" cy="379.25" r="7.333"/>
<circle fill="#482E05" cx="69.75" cy="397.416" r="7.333"/>
<circle fill="#482E05" cx="113.75" cy="385.916" r="7.333"/>
<circle fill="#482E05" cx="216.75" cy="351.25" r="16.667"/>
<circle fill="#482E05" cx="233.417" cy="331.25" r="6.667"/>
<circle fill="#482E05" cx="254.083" cy="330.917" r="1.667"/>
<circle fill="#482E05" cx="143.25" cy="345.584" r="16"/>
<circle fill="#482E05" cx="107.083" cy="365.584" r="4.666"/>
<circle fill="#482E05" cx="94.083" cy="378.584" r="5.666"/>
<circle fill="#482E05" cx="88.083" cy="390.25" r="5.334"/>
<circle fill="#482E05" cx="78.417" cy="404.25" r="3.334"/>
<circle fill="#482E05" cx="81.417" cy="414.917" r="13.667"/>
<circle fill="#482E05" cx="79.083" cy="390.917" r="3.333"/>
<circle fill="#482E05" cx="85.083" cy="347.917" r="4"/>
<ellipse fill="#482E05" cx="92.417" cy="349.584" rx="4" ry="0"/>
<circle fill="#482E05" cx="82.417" cy="373.917" r="10"/>
<circle fill="#482E05" cx="74.75" cy="379.25" r="11.666"/>
<circle fill="#482E05" cx="96.417" cy="352.917" r="8"/>
<circle fill="#482E05" cx="101.417" cy="338.584" r="7.667"/>
<circle fill="#482E05" cx="237.083" cy="111.25" r="2"/>
<circle fill="#482E05" cx="299.75" cy="139.917" r="5.667"/>
<circle fill="#482E05" cx="309.75" cy="148.583" r="6"/>
<circle fill="#482E05" cx="320.084" cy="151.917" r="6.666"/>
<circle fill="#482E05" cx="369.75" cy="149.917" r="4.334"/>
<circle fill="#482E05" cx="379.084" cy="146.583" r="8"/>
<circle fill="#482E05" cx="403.75" cy="137.25" r="3.334"/>
<circle fill="#482E05" cx="401.084" cy="205.583" r="2.666"/>
<circle fill="#482E05" cx="406.084" cy="241.917" r="4"/>
<circle fill="#482E05" cx="336.084" cy="264.584" r="6"/>
<circle fill="#482E05" cx="327.084" cy="278.25" r="4.667"/>
<circle fill="#482E05" cx="304.75" cy="286.584" r="5"/>
<circle fill="#A7ECC1" cx="76.75" cy="146.5" r="2.25"/>
<circle fill="#A7ECC1" cx="84" cy="158.25" r="2.5"/>
<circle fill="#A7ECC1" cx="82.75" cy="165.5" r="3"/>
<circle fill="#A7ECC1" cx="97.5" cy="155.5" r="8"/>
<circle fill="#A7ECC1" cx="112.25" cy="152.5" r="5.75"/>
<circle fill="#A7ECC1" cx="124.25" cy="140.75" r="3"/>
<circle fill="#A7ECC1" cx="121.5" cy="133.75" r="6.75"/>
<circle fill="#A7ECC1" cx="106" cy="126.75" r="5.25"/>
<circle fill="#A7ECC1" cx="98.75" cy="120.75" r="8"/>
<circle fill="#A7ECC1" cx="80.5" cy="131.5" r="4.25"/>
<circle fill="#A7ECC1" cx="89.25" cy="106.75" r="6.25"/>
<circle fill="#A7ECC1" cx="100.5" cy="103.5" r="2.25"/>
<circle fill="#A7ECC1" cx="106.25" cy="100.75" r="4.25"/>
<circle fill="#A7ECC1" cx="115" cy="100" r="4.25"/>
<circle fill="#A7ECC1" cx="121.75" cy="101.25" r="3.5"/>
<circle fill="#A7ECC1" cx="136.75" cy="103.5" r="1.75"/>
<circle fill="#A7ECC1" cx="142" cy="104.5" r="4.75"/>
<circle fill="#A7ECC1" cx="156" cy="108.25" r="3.25"/>
<circle fill="#A7ECC1" cx="168" cy="110.25" r="1.75"/>
<circle fill="#A7ECC1" cx="177.75" cy="112" r="7"/>
<circle fill="#A7ECC1" cx="193.75" cy="105.75" r="7"/>
<circle fill="#A7ECC1" cx="211.75" cy="99.917" r="2.5"/>
<circle fill="#A7ECC1" cx="220.75" cy="93.75" r="2.25"/>
<circle fill="#A7ECC1" cx="232" cy="80.5" r="6.25"/>
<circle fill="#A7ECC1" cx="239.25" cy="88" r="8.5"/>
<circle fill="#A7ECC1" cx="233.5" cy="98.5" r="2.75"/>
<circle fill="#A7ECC1" cx="249.5" cy="97" r="3.75"/>
<circle fill="#A7ECC1" cx="256.75" cy="83" r="5.25"/>
<circle fill="#A7ECC1" cx="269.75" cy="73.5" r="5"/>
<circle fill="#A7ECC1" cx="279.5" cy="75.5" r="6.75"/>
<circle fill="#A7ECC1" cx="290.5" cy="82" r="5"/>
<circle fill="#A7ECC1" cx="289" cy="97.75" r="2.5"/>
<circle fill="#A7ECC1" cx="291.5" cy="103.25" r="2.75"/>
<circle fill="#A7ECC1" cx="289" cy="109" r="10.5"/>
<circle fill="#A7ECC1" cx="246" cy="82.5" r="3.25"/>
<circle fill="#A7ECC1" cx="247.75" cy="74.75" r="3.25"/>
<circle fill="#A7ECC1" cx="246.75" cy="66.75" r="7.75"/>
<circle fill="#A7ECC1" cx="286.25" cy="70.5" r="2.5"/>
<circle fill="#A7ECC1" cx="295.75" cy="76" r="1.5"/>
<circle fill="#A7ECC1" cx="305.5" cy="79" r="5.75"/>
<circle fill="#A7ECC1" cx="314.5" cy="80" r="6.25"/>
<circle fill="#A7ECC1" cx="322" cy="80" r="3.25"/>
<circle fill="#A7ECC1" cx="328.75" cy="79" r="8"/>
<circle fill="#A7ECC1" cx="340.25" cy="82.5" r="1.5"/>
<circle fill="#A7ECC1" cx="349.75" cy="82.5" r="1"/>
<circle fill="#A7ECC1" cx="357" cy="81.75" r="2.5"/>
<circle fill="#A7ECC1" cx="359.5" cy="81.75" r="3.25"/>
<circle fill="#A7ECC1" cx="365" cy="85" r="2.75"/>
<circle fill="#A7ECC1" cx="371" cy="87.5" r="2.25"/>
<circle fill="#A7ECC1" cx="380.25" cy="91.25" r="3"/>
<circle fill="#A7ECC1" cx="384.75" cy="90.25" r="4.75"/>
<circle fill="#A7ECC1" cx="393.75" cy="91" r="4"/>
<circle fill="#A7ECC1" cx="403.5" cy="91.75" r="4"/>
<circle fill="#A7ECC1" cx="410.5" cy="93.5" r="5.5"/>
<circle fill="#A7ECC1" cx="420.5" cy="96.25" r="2.5"/>
<circle fill="#A7ECC1" cx="428" cy="96.5" r="3"/>
<circle fill="#A7ECC1" cx="443.5" cy="98.5" r="3.75"/>
<circle fill="#A7ECC1" cx="449" cy="99" r="4.5"/>
<circle fill="#A7ECC1" cx="441.25" cy="105" r="1.75"/>
<circle fill="#A7ECC1" cx="435" cy="106.25" r="2"/>
<circle fill="#A7ECC1" cx="430.25" cy="108.5" r="2.25"/>
<circle fill="#A7ECC1" cx="424.5" cy="111.5" r="1.5"/>
<circle fill="#A7ECC1" cx="420.5" cy="113.25" r="2.5"/>
<circle fill="#A7ECC1" cx="403.5" cy="116" r="3"/>
<circle fill="#A7ECC1" cx="404.75" cy="116.5" r="6.75"/>
<circle fill="#A7ECC1" cx="411.75" cy="124.25" r="1.5"/>
<circle fill="#A7ECC1" cx="413.75" cy="107.75" r="3.75"/>
<ellipse fill="#A7ECC1" cx="403.5" cy="107.25" rx="0" ry="2.5"/>
<circle fill="#A7ECC1" cx="396.75" cy="108.75" r="4"/>
<circle fill="#A7ECC1" cx="376" cy="115.25" r="1.5"/>
<circle fill="#A7ECC1" cx="377.75" cy="118" r="6.5"/>
<ellipse fill="#A7ECC1" cx="384.5" cy="126.5" rx="0" ry="0.5"/>
<circle fill="#A7ECC1" cx="374.75" cy="125.5" r="2.75"/>
<circle fill="#A7ECC1" cx="356.5" cy="118.75" r="2.5"/>
<circle fill="#A7ECC1" cx="341.5" cy="113.75" r="3.75"/>
<ellipse fill="#A7ECC1" cx="343" cy="100" rx="0" ry="3.75"/>
<circle fill="#A7ECC1" cx="337.75" cy="98" r="8"/>
<circle fill="#A7ECC1" cx="321.25" cy="99.5" r="3.25"/>
<circle fill="#A7ECC1" cx="313" cy="101.25" r="3.5"/>
<circle fill="#A7ECC1" cx="304" cy="98.75" r="6"/>
<circle fill="#A7ECC1" cx="290.75" cy="94.5" r="5"/>
<circle fill="#A7ECC1" cx="283.25" cy="90" r="7"/>
<circle fill="#A7ECC1" cx="266.75" cy="87" r="6"/>
<circle fill="#A7ECC1" cx="265" cy="100.25" r="4.5"/>
<circle fill="#A7ECC1" cx="246" cy="85.75" r="6"/>
<circle fill="#A7ECC1" cx="222" cy="82.75" r="5.5"/>
<circle fill="#A7ECC1" cx="219.25" cy="91.75" r="0.75"/>
<circle fill="#A7ECC1" cx="310.75" cy="95.5" r="3.5"/>
<circle fill="#A7ECC1" cx="341" cy="96.25" r="2.25"/>
<circle fill="#A7ECC1" cx="346.5" cy="95.25" r="7.25"/>
<circle fill="#A7ECC1" cx="359.75" cy="95" r="5.5"/>
<circle fill="#A7ECC1" cx="314" cy="110.5" r="3.5"/>
<circle fill="#A7ECC1" cx="272.5" cy="107.5" r="1.25"/>
<circle fill="#A7ECC1" cx="260.25" cy="103.5" r="6.5"/>
<circle fill="#A7ECC1" cx="249.75" cy="103.25" r="4.25"/>
<circle fill="#A7ECC1" cx="264.25" cy="95.5" r="5.5"/>
<circle fill="#A7ECC1" cx="269.75" cy="94.5" r="10.25"/>
<circle fill="#A7ECC1" cx="277.25" cy="104.5" r="6"/>
<circle fill="#A7ECC1" cx="315" cy="110.25" r="3.75"/>
<circle fill="#A7ECC1" cx="318.25" cy="116" r="14.25"/>
<circle fill="#A7ECC1" cx="78" cy="122.75" r="14.25"/>
<ellipse fill="#A7ECC1" cx="346.25" cy="106.75" rx="3.25" ry="1.75"/>
<circle fill="#A7ECC1" cx="346.25" cy="108.5" r="9.25"/>
<circle fill="#A7ECC1" cx="344.75" cy="121.5" r="2.75"/>
<circle fill="#A7ECC1" cx="348" cy="126.75" r="3.5"/>
<circle fill="#A7ECC1" cx="362" cy="117" r="2.084"/>
<circle fill="#A7ECC1" cx="365" cy="107.5" r="3.75"/>
<circle fill="#A7ECC1" cx="369.75" cy="105.75" r="5.5"/>
<circle fill="#A7ECC1" cx="377.5" cy="106" r="5.25"/>
<circle fill="#A7ECC1" cx="383.5" cy="104.25" r="5.25"/>
<circle fill="#A7ECC1" cx="388.75" cy="108.5" r="2"/>
<circle fill="#A7ECC1" cx="395.75" cy="103" r="3.25"/>
<circle fill="#A7ECC1" cx="390" cy="115.75" r="6"/>
<circle fill="#A7ECC1" cx="390.5" cy="123.25" r="2.75"/>
<circle fill="#A7ECC1" cx="387.5" cy="129" r="4.25"/>
<circle fill="#A7ECC1" cx="406.25" cy="124.5" r="0.75"/>
<circle fill="#A7ECC1" cx="407" cy="124.5" r="2.5"/>
<circle fill="#A7ECC1" cx="410.25" cy="106.5" r="5.5"/>
<circle fill="#A7ECC1" cx="424.5" cy="105.25" r="3.25"/>
<circle fill="#A7ECC1" cx="390.5" cy="126" r="2"/>
<circle fill="#A7ECC1" cx="394.5" cy="129.75" r="2.5"/>
<circle fill="#A7ECC1" cx="396.5" cy="134" r="5.75"/>
<circle fill="#A7ECC1" cx="374" cy="127.5" r="11.25"/>
<circle fill="#A7ECC1" cx="118" cy="111.5" r="5.25"/>
<circle fill="#A7ECC1" cx="117" cy="119.25" r="5.75"/>
<circle fill="#A7ECC1" cx="122.25" cy="124.5" r="3.5"/>
<circle fill="#A7ECC1" cx="131" cy="113.25" r="5.75"/>
<circle fill="#A7ECC1" cx="140.25" cy="115.25" r="7"/>
<circle fill="#A7ECC1" cx="147.25" cy="114.5" r="8"/>
<circle fill="#A7ECC1" cx="143.5" cy="126.75" r="8.25"/>
<ellipse fill="#A7ECC1" cx="138.75" cy="134.5" rx="0" ry="5"/>
<circle fill="#A7ECC1" cx="130.75" cy="140.75" r="3.5"/>
<circle fill="#A7ECC1" cx="121" cy="143" r="2"/>
<circle fill="#A7ECC1" cx="89.5" cy="133.25" r="6.5"/>
<circle fill="#A7ECC1" cx="91" cy="129" r="6"/>
<circle fill="#A7ECC1" cx="104" cy="134.5" r="3"/>
<circle fill="#A7ECC1" cx="96.75" cy="139" r="6"/>
<circle fill="#A7ECC1" cx="90.5" cy="146" r="2.25"/>
<circle fill="#A7ECC1" cx="84.75" cy="152" r="3.25"/>
<circle fill="#A7ECC1" cx="84" cy="158.25" r="6"/>
<circle fill="#A7ECC1" cx="91.326" cy="171.243" r="6"/>
<circle fill="#A7ECC1" cx="78.5" cy="166.5" r="3"/>
<circle fill="#A7ECC1" cx="125" cy="145.5" r="9"/>
<circle fill="#A7ECC1" cx="134" cy="132.25" r="4.25"/>
<circle fill="#A7ECC1" cx="139.5" cy="131.5" r="6"/>
<circle fill="#A7ECC1" cx="137.25" cy="138.25" r="4"/>
<circle fill="#59B63F" cx="364.084" cy="126.25" r="7.333"/>
<circle fill="#5A53E5" cx="70.25" cy="264.084" r="8"/>
<circle fill="#5A53E5" cx="73.25" cy="245.25" r="8"/>
<circle fill="#5A53E5" cx="75.25" cy="225.75" r="8"/>
<circle fill="#5A53E5" cx="52.75" cy="293.25" r="8"/>
<circle fill="#5A53E5" cx="83.083" cy="297.917" r="10"/>
<circle fill="#5A53E5" cx="93.083" cy="297.917" r="8"/>
<circle fill="#5A53E5" cx="98.417" cy="278.917" r="8"/>
<circle fill="#5A53E5" cx="101.75" cy="246.584" r="5.333"/>
<circle fill="#5A53E5" cx="63.417" cy="301.75" r="5.333"/>
<circle fill="#5A53E5" cx="181.083" cy="376.584" r="10.666"/>
<circle fill="#5A53E5" cx="115.083" cy="259.25" r="10"/>
<circle fill="#5A53E5" cx="131.75" cy="261.917" r="4"/>
<circle fill="#5A53E5" cx="151.75" cy="259.917" r="3.333"/>
<circle fill="#5A53E5" cx="170.427" cy="161.194" r="0.483"/>
<circle fill="#5A53E5" cx="170.196" cy="158.18" r="1.611"/>
<circle fill="#5A53E5" cx="171.464" cy="153.135" r="2.256"/>
<circle fill="#5A53E5" cx="172.424" cy="149.751" r="0.806"/>
<circle fill="#5A53E5" cx="173.04" cy="147.32" r="0.806"/>
<circle fill="#5A53E5" cx="171.557" cy="145.343" r="0.806"/>
<circle fill="#5A53E5" cx="173.534" cy="144.972" r="0.806"/>
<circle fill="#5A53E5" cx="174.894" cy="146.455" r="0.806"/>
<circle fill="#5A53E5" cx="177.242" cy="142.377" r="0.806"/>
<circle fill="#5A53E5" cx="175.357" cy="144.432" r="0.967"/>
<circle fill="#5A53E5" cx="179.13" cy="139.758" r="0.967"/>
<circle fill="#5A53E5" cx="180.742" cy="134.44" r="2.901"/>
<circle fill="#5A53E5" cx="184.449" cy="131.861" r="1.128"/>
<circle fill="#5A53E5" cx="187.113" cy="130.265" r="1.128"/>
<circle fill="#5A53E5" cx="184.888" cy="127.917" r="1.128"/>
<circle fill="#5A53E5" cx="190.45" cy="124.086" r="1.128"/>
<circle fill="#5A53E5" cx="189.123" cy="127.349" r="1.611"/>
<circle fill="#5A53E5" cx="193.958" cy="123.931" r="1.934"/>
<circle fill="#5A53E5" cx="198.148" cy="122.514" r="1.128"/>
<circle fill="#5A53E5" cx="200.25" cy="121.278" r="1.128"/>
<circle fill="#5A53E5" cx="204.448" cy="118.153" r="2.579"/>
<circle fill="#5A53E5" cx="210.397" cy="115.678" r="3.707"/>
<circle fill="#5A53E5" cx="218.133" cy="115.744" r="2.095"/>
<circle fill="#5A53E5" cx="223.452" cy="115.1" r="1.451"/>
<circle fill="#5A53E5" cx="229.415" cy="115.583" r="1.773"/>
<circle fill="#5A53E5" cx="235.217" cy="116.228" r="2.579"/>
<circle fill="#5A53E5" cx="240.213" cy="116.873" r="2.256"/>
<circle fill="#5A53E5" cx="245.532" cy="118.484" r="1.29"/>
<circle fill="#5A53E5" cx="248.433" cy="120.418" r="1.289"/>
<circle fill="#5A53E5" cx="251.334" cy="122.997" r="1.45"/>
<circle fill="#5A53E5" cx="256.652" cy="126.865" r="0.967"/>
<circle fill="#5A53E5" cx="263.604" cy="130.411" r="2.579"/>
<circle fill="#5A53E5" cx="269.101" cy="137.985" r="1.934"/>
<circle fill="#5A53E5" cx="273.091" cy="145.238" r="0.806"/>
<circle fill="#5A53E5" cx="278.249" cy="148.945" r="2.74"/>
<circle fill="#5A53E5" cx="278.249" cy="154.264" r="1.289"/>
<circle fill="#5A53E5" cx="280.505" cy="157.648" r="0.483"/>
<circle fill="#5A53E5" cx="285.018" cy="157.487" r="1.29"/>
<circle fill="#5A53E5" cx="283.729" cy="162.322" r="1.289"/>
<ellipse fill="#5A53E5" cx="282.762" cy="165.384" rx="0" ry="1.773"/>
<circle fill="#5A53E5" cx="281.473" cy="171.347" r="2.096"/>
<circle fill="#5A53E5" cx="280.505" cy="175.215" r="1.29"/>
<circle fill="#5A53E5" cx="282.762" cy="165.384" r="1.772"/>
<circle fill="#5A53E5" cx="289.369" cy="160.549" r="1.29"/>
<circle fill="#5A53E5" cx="290.176" cy="155.069" r="0.806"/>
<circle fill="#5A53E5" cx="286.146" cy="153.619" r="4.352"/>
<circle fill="#5A53E5" cx="292.593" cy="170.38" r="0.645"/>
<circle fill="#5A53E5" cx="292.915" cy="173.926" r="3.384"/>
<circle fill="#5A53E5" cx="282.601" cy="182.791" r="1.289"/>
<circle fill="#5A53E5" cx="275.187" cy="193.911" r="1.772"/>
<circle fill="#5A53E5" cx="273.253" cy="197.295" r="1.128"/>
<circle fill="#5A53E5" cx="271.018" cy="199.896" r="1.128"/>
<circle fill="#5A53E5" cx="277.482" cy="188.592" r="1.934"/>
<circle fill="#5A53E5" cx="278.249" cy="183.757" r="0.483"/>
<circle fill="#5A53E5" cx="280.15" cy="179.083" r="1.934"/>
<circle fill="#5A53E5" cx="279.538" cy="161.194" r="0.483"/>
<circle fill="#5A53E5" cx="160.435" cy="168.93" r="0.322"/>
<circle fill="#5A53E5" cx="165.753" cy="166.512" r="0.483"/>
<circle fill="#5A53E5" cx="164.948" cy="162" r="1.612"/>
<circle fill="#5A53E5" cx="165.915" cy="151.846" r="1.29"/>
<circle fill="#5A53E5" cx="168.816" cy="147.978" r="2.095"/>
<circle fill="#5A53E5" cx="172.845" cy="140.081" r="2.74"/>
<circle fill="#5A53E5" cx="175.585" cy="136.374" r="0.967"/>
<circle fill="#59B63F" cx="314.084" cy="130.583" r="4"/>
</svg>
